# xmcd
#
# Track frame offsets:
#	150
#	25295
#	52877
#	78790
#	96700
#	108077
#	124392
#	143097
#	161242
#	181970
#	199762
#	229035
#
# Disc length: 3279
#
# Revision: 3
# Processed by: cddbd v1.5.1PL0 Copyright (c) Steve Scherf et al.
# Submitted via: CDValet v3.01 - Copyright (c) 1997 Greg Leichner
# Normalized: r1:TDELIM( - );r2:TSWAP
#
DISCID=9e0ccd0c
DTITLE=Various Artist - 21st Century Blues
DYEAR=1900
DGENRE=
TTITLE0=Walter Trout Band - Runnin' Blues
TTITLE1=Chris Anderson - Your're Gonna Need Me
TTITLE2=Gov't Mule - Temporary Saint
TTITLE3=Storyville - Good Day for the Blues
TTITLE4=Tinsley Ellis - Come Morning
TTITLE5=Robert Cray - I Guess I Showed Her
TTITLE6=Gary Moore - Still Got the Blues
TTITLE7=Jimmy Thackery - Paying the Cost to be the Boss
TTITLE8=Chris Duarte - My Way Down
TTITLE9=Robben Ford and The Blue Line - Rugged Board
TTITLE10=Joe Louis Walker - Bluesifyin'
TTITLE11=The Allman Brothers Band - Leavin'
EXTD=
EXTT0=
EXTT1=
EXTT2=
EXTT3=
EXTT4=
EXTT5=
EXTT6=
EXTT7=
EXTT8=
EXTT9=
EXTT10=
EXTT11=
PLAYORDER=
